
<svg xmlns="http://www.w3.org/2000/svg" width="1600" height="900" viewBox="0 0 1600 900">
  <defs>
    <linearGradient id="bg" x1="0" y1="0" x2="1" y2="1">
      <stop offset="0" stop-color="#3a1b30"/>
      <stop offset="1" stop-color="#ef8175"/>
    </linearGradient>
    <radialGradient id="glowA" cx="24%" cy="20%" r="52%">
      <stop offset="0" stop-color="#ffd7c2" stop-opacity=".42"/>
      <stop offset="1" stop-color="#ffd7c2" stop-opacity="0"/>
    </radialGradient>
    <radialGradient id="glowB" cx="78%" cy="30%" r="48%">
      <stop offset="0" stop-color="#ffffff" stop-opacity=".22"/>
      <stop offset="1" stop-color="#ffffff" stop-opacity="0"/>
    </radialGradient>
    <pattern id="grid" width="72" height="72" patternUnits="userSpaceOnUse">
      <path d="M72 0H0V72" fill="none" stroke="#ffffff" stroke-opacity=".08" stroke-width="1"/>
    </pattern>
    <filter id="soft"><feGaussianBlur stdDeviation="18"/></filter>
  </defs>
  <rect width="100%" height="100%" fill="url(#bg)"/>
  <rect width="100%" height="100%" fill="url(#glowA)"/>
  <rect width="100%" height="100%" fill="url(#glowB)"/>
  <rect width="100%" height="100%" fill="url(#grid)" opacity=".75"/>

  <path d="M715 355q0-110-110-110-70 0-105 58-35-58-105-58-110 0-110 110 0 145 215 280 215-135 215-280z" fill="#ef8175" opacity=".86"/>
  <path d="M1315 355q0-110-110-110-70 0-105 58-35-58-105-58-110 0-110 110 0 145 215 280 215-135 215-280z" fill="#ffd7c2" opacity=".52"/>
  <rect x="350" y="685" width="900" height="74" rx="37" fill="#ffffff" opacity=".18"/></svg>