
<svg xmlns="http://www.w3.org/2000/svg" width="1600" height="900" viewBox="0 0 1600 900">
  <defs>
    <linearGradient id="bg" x1="0" y1="0" x2="1" y2="1">
      <stop offset="0" stop-color="#20472f"/>
      <stop offset="1" stop-color="#d3aa53"/>
    </linearGradient>
    <radialGradient id="glowA" cx="24%" cy="20%" r="52%">
      <stop offset="0" stop-color="#bdf59e" stop-opacity=".42"/>
      <stop offset="1" stop-color="#bdf59e" stop-opacity="0"/>
    </radialGradient>
    <radialGradient id="glowB" cx="78%" cy="30%" r="48%">
      <stop offset="0" stop-color="#ffffff" stop-opacity=".22"/>
      <stop offset="1" stop-color="#ffffff" stop-opacity="0"/>
    </radialGradient>
    <pattern id="grid" width="72" height="72" patternUnits="userSpaceOnUse">
      <path d="M72 0H0V72" fill="none" stroke="#ffffff" stroke-opacity=".08" stroke-width="1"/>
    </pattern>
    <filter id="soft"><feGaussianBlur stdDeviation="18"/></filter>
  </defs>
  <rect width="100%" height="100%" fill="url(#bg)"/>
  <rect width="100%" height="100%" fill="url(#glowA)"/>
  <rect width="100%" height="100%" fill="url(#glowB)"/>
  <rect width="100%" height="100%" fill="url(#grid)" opacity=".75"/>

  <ellipse cx="800" cy="760" rx="980" ry="370" fill="#357342" opacity=".8"/>
  <g fill="none" stroke="#d3aa53" stroke-width="16" opacity=".9">
    <path d="M-80 735q430-190 1760 0"/><path d="M-80 820q430-190 1760 0"/><path d="M-80 905q430-190 1760 0"/>
  </g>
  <g fill="#bdf59e"><ellipse cx="430" cy="305" rx="95" ry="60"/><ellipse cx="800" cy="265" rx="105" ry="66"/><ellipse cx="1130" cy="320" rx="95" ry="60"/></g></svg>