
<svg xmlns="http://www.w3.org/2000/svg" width="1600" height="900" viewBox="0 0 1600 900">
  <defs>
    <linearGradient id="bg" x1="0" y1="0" x2="1" y2="1">
      <stop offset="0" stop-color="#123d2c"/>
      <stop offset="1" stop-color="#7bd060"/>
    </linearGradient>
    <radialGradient id="glowA" cx="24%" cy="20%" r="52%">
      <stop offset="0" stop-color="#d6ffc5" stop-opacity=".42"/>
      <stop offset="1" stop-color="#d6ffc5" stop-opacity="0"/>
    </radialGradient>
    <radialGradient id="glowB" cx="78%" cy="30%" r="48%">
      <stop offset="0" stop-color="#ffffff" stop-opacity=".22"/>
      <stop offset="1" stop-color="#ffffff" stop-opacity="0"/>
    </radialGradient>
    <pattern id="grid" width="72" height="72" patternUnits="userSpaceOnUse">
      <path d="M72 0H0V72" fill="none" stroke="#ffffff" stroke-opacity=".08" stroke-width="1"/>
    </pattern>
    <filter id="soft"><feGaussianBlur stdDeviation="18"/></filter>
  </defs>
  <rect width="100%" height="100%" fill="url(#bg)"/>
  <rect width="100%" height="100%" fill="url(#glowA)"/>
  <rect width="100%" height="100%" fill="url(#glowB)"/>
  <rect width="100%" height="100%" fill="url(#grid)" opacity=".75"/>

  <path d="M310 610 500 485l170 55 215-180 300-105" fill="none" stroke="#d6ffc5" stroke-width="18" stroke-linecap="round" stroke-linejoin="round"/>
  <g fill="#7bd060" stroke="#ffffff" stroke-opacity=".65" stroke-width="6"><circle cx="310" cy="610" r="24"/><circle cx="500" cy="485" r="24"/><circle cx="670" cy="540" r="24"/><circle cx="885" cy="360" r="24"/><circle cx="1185" cy="255" r="24"/></g>
  <path d="M1085 305q110-150 270-120-30 170-200 220" fill="none" stroke="#7bd060" stroke-width="18" stroke-linecap="round"/></svg>