
<svg xmlns="http://www.w3.org/2000/svg" width="1600" height="900" viewBox="0 0 1600 900">
  <defs>
    <linearGradient id="bg" x1="0" y1="0" x2="1" y2="1">
      <stop offset="0" stop-color="#12213f"/>
      <stop offset="1" stop-color="#d9ad4b"/>
    </linearGradient>
    <radialGradient id="glowA" cx="24%" cy="20%" r="52%">
      <stop offset="0" stop-color="#84d8ff" stop-opacity=".42"/>
      <stop offset="1" stop-color="#84d8ff" stop-opacity="0"/>
    </radialGradient>
    <radialGradient id="glowB" cx="78%" cy="30%" r="48%">
      <stop offset="0" stop-color="#ffffff" stop-opacity=".22"/>
      <stop offset="1" stop-color="#ffffff" stop-opacity="0"/>
    </radialGradient>
    <pattern id="grid" width="72" height="72" patternUnits="userSpaceOnUse">
      <path d="M72 0H0V72" fill="none" stroke="#ffffff" stroke-opacity=".08" stroke-width="1"/>
    </pattern>
    <filter id="soft"><feGaussianBlur stdDeviation="18"/></filter>
  </defs>
  <rect width="100%" height="100%" fill="url(#bg)"/>
  <rect width="100%" height="100%" fill="url(#glowA)"/>
  <rect width="100%" height="100%" fill="url(#glowB)"/>
  <rect width="100%" height="100%" fill="url(#grid)" opacity=".75"/>

  <rect x="200" y="135" width="1200" height="610" rx="42" fill="#ffffff" opacity=".10" stroke="#ffffff" stroke-opacity=".24"/>
  <path d="M320 590 520 480 690 515 875 350 1120 245" fill="none" stroke="#84d8ff" stroke-width="16" stroke-linecap="round" stroke-linejoin="round"/>
  <g fill="#d9ad4b">
    <rect x="360" y="445" width="74" height="170" rx="22"/><rect x="540" y="380" width="74" height="235" rx="22"/>
    <rect x="720" y="315" width="74" height="300" rx="22"/><rect x="900" y="245" width="74" height="370" rx="22"/>
    <rect x="1080" y="190" width="74" height="425" rx="22"/>
  </g>
  <g fill="#ffffff"><circle cx="320" cy="590" r="18"/><circle cx="520" cy="480" r="18"/><circle cx="690" cy="515" r="18"/><circle cx="875" cy="350" r="18"/><circle cx="1120" cy="245" r="18"/></g></svg>