
<svg xmlns="http://www.w3.org/2000/svg" width="1600" height="900" viewBox="0 0 1600 900">
  <defs>
    <linearGradient id="bg" x1="0" y1="0" x2="1" y2="1">
      <stop offset="0" stop-color="#142a3d"/>
      <stop offset="1" stop-color="#5ca7ff"/>
    </linearGradient>
    <radialGradient id="glowA" cx="24%" cy="20%" r="52%">
      <stop offset="0" stop-color="#d6eaff" stop-opacity=".42"/>
      <stop offset="1" stop-color="#d6eaff" stop-opacity="0"/>
    </radialGradient>
    <radialGradient id="glowB" cx="78%" cy="30%" r="48%">
      <stop offset="0" stop-color="#ffffff" stop-opacity=".22"/>
      <stop offset="1" stop-color="#ffffff" stop-opacity="0"/>
    </radialGradient>
    <pattern id="grid" width="72" height="72" patternUnits="userSpaceOnUse">
      <path d="M72 0H0V72" fill="none" stroke="#ffffff" stroke-opacity=".08" stroke-width="1"/>
    </pattern>
    <filter id="soft"><feGaussianBlur stdDeviation="18"/></filter>
  </defs>
  <rect width="100%" height="100%" fill="url(#bg)"/>
  <rect width="100%" height="100%" fill="url(#glowA)"/>
  <rect width="100%" height="100%" fill="url(#glowB)"/>
  <rect width="100%" height="100%" fill="url(#grid)" opacity=".75"/>

  <g fill="#ffffff" opacity=".13" stroke="#ffffff" stroke-opacity=".28">
    <rect x="260" y="265" width="160" height="380" rx="18"/><rect x="500" y="230" width="160" height="415" rx="18"/>
    <rect x="740" y="265" width="160" height="380" rx="18"/><rect x="980" y="230" width="160" height="415" rx="18"/>
  </g>
  <g stroke="#d6eaff" stroke-width="16"><path d="M285 370h110M525 350h110M765 385h110M1005 350h110"/><path d="M285 490h110M525 485h110M765 505h110M1005 485h110"/></g></svg>